<?xml version="1.0" encoding="UTF-8" standalone="no"?>
<svg
   xmlns:dc="http://purl.org/dc/elements/1.1/"
   xmlns:cc="http://creativecommons.org/ns#"
   xmlns:rdf="http://www.w3.org/1999/02/22-rdf-syntax-ns#"
   xmlns:svg="http://www.w3.org/2000/svg"
   xmlns="http://www.w3.org/2000/svg"
   xmlns:sodipodi="http://sodipodi.sourceforge.net/DTD/sodipodi-0.dtd"
   xmlns:inkscape="http://www.inkscape.org/namespaces/inkscape"
   viewBox="0 0 445.33331 154.76267"
   height="154.76266"
   width="445.33331"
   xml:space="preserve"
   id="svg2"
   version="1.1"
   inkscape:version="0.91 r13725"
   sodipodi:docname="ACME_LOGO_YELLOW.svg"><sodipodi:namedview
     pagecolor="#ffffff"
     bordercolor="#666666"
     borderopacity="1"
     objecttolerance="10"
     gridtolerance="10"
     guidetolerance="10"
     inkscape:pageopacity="0"
     inkscape:pageshadow="2"
     inkscape:window-width="1279"
     inkscape:window-height="750"
     id="namedview47"
     showgrid="false"
     inkscape:zoom="0.81865037"
     inkscape:cx="216.69882"
     inkscape:cy="22.78548"
     inkscape:window-x="1"
     inkscape:window-y="430"
     inkscape:window-maximized="0"
     inkscape:current-layer="svg2"
     fit-margin-top="0"
     fit-margin-left="0"
     fit-margin-right="0"
     fit-margin-bottom="0" /><metadata
     id="metadata8"><rdf:RDF><cc:Work
         rdf:about=""><dc:format>image/svg+xml</dc:format><dc:type
           rdf:resource="http://purl.org/dc/dcmitype/StillImage" /><dc:title></dc:title></cc:Work></rdf:RDF></metadata><defs
     id="defs6"><clipPath
       id="clipPath18"
       clipPathUnits="userSpaceOnUse"><path
         id="path16"
         d="m 1,0.059 354,0 L 355,215 1,215 Z"
         inkscape:connector-curvature="0" /></clipPath><clipPath
       id="clipPath30"
       clipPathUnits="userSpaceOnUse"><path
         id="path28"
         d="m 1,0 354,0 0,215 -354,0 z"
         inkscape:connector-curvature="0" /></clipPath></defs><g
     transform="matrix(1.3333333,0,0,-1.3333333,-12.333333,275.31053)"
     id="g10"><g
       id="g24"><g
         clip-path="url(#clipPath30)"
         id="g26"><g
           transform="translate(343.25,102.4199)"
           id="g32"><path
             id="path34"
             style="fill:#f3cd2f;fill-opacity:1;fill-rule:nonzero;stroke:none"
             d="m 0,0 c 0,-6.634 -5.277,-12.009 -11.788,-12.009 l -310.423,0 C -328.723,-12.009 -334,-6.634 -334,0 l 0,92.056 c 0,6.631 5.277,12.007 11.789,12.007 l 310.423,0 C -5.277,104.063 0,98.687 0,92.056"
             inkscape:connector-curvature="0" /></g><g
           transform="translate(60.1265,127.0508)"
           id="g36"><path
             id="path38"
             style="fill:#2d2f2d;fill-opacity:1;fill-rule:nonzero;stroke:none"
             d="m 0,0 -15.621,0 1.498,6.206 13.053,0 -10.806,47.292 1.391,5.777 23.646,0 16.048,-67.621 c 0.643,-2.995 0.749,-5.028 3.746,-6.312 1.498,-0.642 2.674,-1.391 2.674,-3.317 0,-2.889 -3.852,-2.782 -5.884,-2.782 l -26.642,0 c -2.14,0 -5.243,0.214 -5.243,2.996 0,1.712 0.642,2.247 2.033,2.996 2.782,1.605 3.21,2.354 2.247,6.527 z M -11.448,32.206 -21.506,-4.387 c -1.712,-6.526 -0.214,-8.345 3.424,-9.95 1.712,-0.749 3.21,-1.391 3.21,-3.531 0,-2.996 -3.424,-2.889 -5.564,-2.889 l -12.304,0 c -2.14,0 -5.992,0.108 -5.992,3.21 0,2.568 1.819,2.461 4.173,3.638 2.247,1.177 5.136,3.638 7.168,11.234 l 12.84,46.971 0.321,0 z"
             inkscape:connector-curvature="0" /></g><g
           transform="translate(157.6016,129.5117)"
           id="g40"><path
             id="path42"
             style="fill:#2d2f2d;fill-opacity:1;fill-rule:nonzero;stroke:none"
             d="m 0,0 c 2.033,0 3.209,-1.712 3.209,-3.638 -0.213,-8.773 -13.16,-21.613 -24.287,-21.184 l 0,6.205 c 8.238,1.819 15.193,7.276 17.547,15.193 C -2.889,-1.605 -2.247,0 0,0 m -21.078,58.419 c 3.959,-0.107 12.197,-4.28 14.979,-4.28 1.605,0 2.247,0.642 2.889,2.033 0.642,1.391 1.391,2.247 2.889,2.247 3.424,0 3.424,-3.316 3.424,-3.852 l 0,-24.822 c 0,-0.536 0,-3.852 -3.424,-3.852 -2.247,0 -3.531,1.819 -3.959,3.852 -1.819,8.666 -6.848,19.794 -16.798,22.468 z m -4.815,-83.241 c -23.539,0.427 -34.666,18.296 -34.666,40.229 0,24.716 13.909,42.263 34.666,43.012 l 0,-6.206 c -5.136,-1.069 -6.848,-5.456 -6.848,-9.95 l 0,-50.716 c 0,-4.493 1.712,-8.88 6.848,-10.164 z"
             inkscape:connector-curvature="0" /></g><g
           transform="translate(222.4434,186.3262)"
           id="g44"><path
             id="path46"
             style="fill:#2d2f2d;fill-opacity:1;fill-rule:nonzero;stroke:none"
             d="m 0,0 28.246,0 c 0.428,0 3.959,-0.214 3.959,-3.317 0,-1.498 -0.963,-2.461 -2.353,-2.889 -3.746,-1.177 -3.639,-1.819 -3.639,-5.777 l 0,-56.066 c 0,-3.959 -0.107,-4.6 3.639,-5.778 1.39,-0.427 2.353,-1.39 2.353,-2.888 0,-3.103 -3.531,-3.317 -3.959,-3.317 l -30.279,0 c -0.428,0 -3.959,0.214 -3.959,3.317 0,1.498 0.963,2.461 2.353,2.888 3.745,1.178 3.639,1.819 3.639,5.778 z m -44.189,-27.07 0.214,0 5.992,-17.654 0,-18.403 c 1.712,-13.374 8.559,-9.202 8.559,-13.802 0,-3.317 -4.387,-3.103 -5.563,-3.103 l -12.198,0 c -1.177,0 -5.564,-0.214 -5.564,3.103 0,4.6 6.848,0.428 8.56,13.802 z M -48.683,0 l 27.177,0 11.448,-32.848 0.214,0 4.815,17.762 0.214,0 0,-19.474 -13.588,-45.472 -3.103,0 -22.362,66.229 c -0.535,1.605 -1.07,3.21 -1.926,4.601 -0.963,1.605 -1.391,2.889 -3.21,2.996 -1.284,0.107 -4.173,0.321 -4.173,2.889 0,3.317 3.21,3.317 4.494,3.317"
             inkscape:connector-curvature="0" /></g><g
           transform="translate(299.9111,112.4995)"
           id="g48"><path
             id="path50"
             style="fill:#2d2f2d;fill-opacity:1;fill-rule:nonzero;stroke:none"
             d="m 0,0 c 8.667,1.07 15.301,6.955 18.189,15.514 0.749,1.605 1.391,3.317 3.318,3.317 3.424,0 3.102,-3.209 3.102,-3.638 l 0,-21.399 -24.609,0 z m 0,38.09 c 4.494,1.177 6.527,5.35 7.49,9.416 0.535,1.819 1.177,3.531 3.424,3.531 3.316,0 2.781,-3.852 2.781,-4.708 l 0,-23.111 c 0,-0.856 0.535,-4.708 -2.781,-4.708 -2.247,0 -2.889,1.712 -3.424,3.531 C 6.527,26.107 4.494,30.28 0,31.457 Z m 0,35.737 23.86,0 0,-21.721 c 0,-0.534 -0.107,-2.567 -3.317,-2.567 -1.818,0 -2.354,1.069 -2.889,2.674 C 14.873,60.88 9.416,66.123 0,67.621 Z m -33.061,0 28.247,0 0,-80.033 -28.247,0 c -0.428,0 -3.959,0.214 -3.959,3.317 0,1.498 0.963,2.461 2.354,2.889 3.745,1.177 3.638,1.819 3.638,5.778 l 0,56.065 c 0,3.959 0.107,4.601 -3.638,5.778 -1.391,0.428 -2.354,1.391 -2.354,2.889 0,3.102 3.531,3.317 3.959,3.317"
             inkscape:connector-curvature="0" /></g></g></g></g></svg>